<svg xmlns="http://www.w3.org/2000/svg" xmlns:xlink="http://www.w3.org/1999/xlink" version="1.1" x="0px" y="0px" viewBox="0 0 100 100" enable-background="new 0 0 100 100" xml:space="preserve"><path d="M60.525,24.078c10.471,0,18.949,10.02,18.949,22.38c0,16.28-13.199,29.47-29.469,29.47c-16.281,0-29.48-13.19-29.48-29.47  c0-4.43,1.109-8.76,3.189-12.44c5.82-10.27,17.58-13.04,26.291-6.17C53.115,25.388,56.785,24.078,60.525,24.078z M75.266,46.458  c0-10.04-6.6-18.17-14.74-18.17c-3.959,0-7.75,1.96-10.52,5.45v6.74c6.299,0,11.41,5.11,11.41,11.41c0,6.3-5.111,11.41-11.41,11.41  v8.42C63.955,71.717,75.266,60.408,75.266,46.458z"></path></svg>